<?xml version="1.0" encoding="UTF-8" standalone="no"?>
<svg
   xmlns:dc="http://purl.org/dc/elements/1.1/"
   xmlns:cc="http://creativecommons.org/ns#"
   xmlns:rdf="http://www.w3.org/1999/02/22-rdf-syntax-ns#"
   xmlns:svg="http://www.w3.org/2000/svg"
   xmlns="http://www.w3.org/2000/svg"
   version="1.1"
   width="376.80829"
   height="238.1859"
   id="svg2"
   viewBox="0 0 376.80829 238.1859">
  <metadata
     id="metadata14">
    <rdf:RDF>
      <cc:Work
         rdf:about="">
        <dc:format>image/svg+xml</dc:format>
        <dc:type
           rdf:resource="http://purl.org/dc/dcmitype/StillImage" />
        <dc:title></dc:title>
      </cc:Work>
    </rdf:RDF>
  </metadata>
  <defs
     id="defs12" />
  <g
     transform="translate(-232.7057,-178.5648)"
     id="g4">
    <path
       d="m 403.9554,193.6845 0.6126,-6.4332 c 0.1811,-1.7266 1.266,-2.5619 3.3698,-2.5529 l 9.4967,0 0.5615,-2.0602 -5.182,0 c 0.5834,-2.757 1.2849,-4.0354 4.051,-4.0734 l 8.4897,0 c 2.7661,0.038 4.3181,1.5999 4.9014,4.3569 1.5129,8.2598 2.4809,16.7916 4.5383,24.7793 1.6169,6.5381 10.7274,5.5344 10.1659,-1.4525 l 0,-4.1751 c -0.0136,-4.5811 2.0222,-6.9999 6.3652,-6.982 l 158.1885,0 c 0,9.9292 -5.5006,13.9841 -13.9731,13.7871 -0.4459,8.5014 -6.6983,11.8922 -16.6073,12.0651 -1.3127,8.5496 -7.2508,11.8435 -16.8914,10.9298 -0.769,7.2791 -4.8625,10.8426 -12.0654,10.9299 l -103.1936,0 c -3.643,-0.3073 -7.2867,-1.8751 -10.9295,-4.4005 l 14.6203,16.0398 c -2.4444,3.3588 -6.0458,4.0734 -10.8777,1.9729 l 2.5588,4.1585 c -3.9753,3.0106 -7.6685,2.4482 -11.1316,-1.0236 l 0.8957,5.6299 c -5.3804,1.1514 -9.4592,-0.2761 -10.8093,-4.5423 -1.3502,4.2662 -5.429,5.6937 -10.8094,4.5423 l 0.8958,-5.6299 c -3.4631,3.4718 -7.1564,4.0342 -11.1317,1.0236 l 2.5588,-4.1585 c -4.8319,2.1005 -8.4333,1.3859 -10.8776,-1.9729 l 14.6202,-16.0398 c -3.6428,2.5254 -7.2864,4.0932 -10.9295,4.4005 l -103.1936,0 c -7.2028,-0.0873 -11.2963,-3.6508 -12.0654,-10.9299 -9.6406,0.9137 -15.5786,-2.3802 -16.8914,-10.9298 -9.909,-0.1729 -16.1614,-3.5637 -16.6073,-12.0651 -8.4725,0.197 -13.9731,-3.8579 -13.9731,-13.7871 l 161.3066,0 c 4.343,-0.0179 7.7117,2.3119 6.3652,6.982 -0.4725,1.3918 -1.3447,2.7833 -1.4173,4.1751 -0.3393,6.4095 7.7139,8.8852 10.7328,1.4525 l 6.3037,-15.1118 -10.9182,0 -1.1231,1.0953 z"
       style="fill:#e30016;fill-rule:evenodd"
       id="path6" />
    <path
       d="m 318.5229,365.8158 -15.7561,0 8.3032,-53.706 7.4529,53.706 z M 451.2881,328.4796 C 450.94,315.9502 443.291,310.1491 434.9282,309.7298 l -6.6175,0 0,35.661 4.7795,0 c 9.6752,-0.1811 18.0292,-5.2055 18.1979,-16.9112 z m 100.1712,-48.5283 -51.643,0 0,33.0874 C 494.4084,287.7934 467.7256,280.22 423.1638,279.9128 l -45.9107,0 0,131.1738 -32.7935,-131.1738 -66.7794,0 -35.7747,136.8379 52.1714,0 3.5776,-22.6573 25.0421,0 2.9812,22.3591 101.958,0 0,-42.3331 c 42.0021,1.2594 67.2494,-6.8261 71.9969,-33.1402 l 0,75.7333 98.6164,0 0,-32.29 -46.7898,0 0,-104.4712 z"
       style="fill:#003e85;fill-rule:evenodd"
       id="path8" />
  </g>
</svg>
