<?xml version="1.0" encoding="utf-8"?>
<!-- Generator: Adobe Illustrator 18.1.1, SVG Export Plug-In . SVG Version: 6.00 Build 0)  -->
<svg version="1.2" baseProfile="tiny" id="Layer_1" xmlns="http://www.w3.org/2000/svg" xmlns:xlink="http://www.w3.org/1999/xlink"
	 x="0px" y="0px" viewBox="0 0 198.8 184" xml:space="preserve">
<polygon fill-rule="evenodd" fill="#2E3192" points="27.7,132.1 55.1,132.1 56.2,151.6 46,151.6 46,161.6 56.9,161.6 57.6,170.5 
	16.3,170.5 27.7,132.1 "/>
<path fill-rule="evenodd" fill="#2E3192" d="M81,143.9l2,26.6H60.3l-1.2-26.6H81L81,143.9z M66.9,152.6l0.7,8.8h7.6l-0.7-8.8H66.9
	L66.9,152.6z"/>
<polygon fill-rule="evenodd" fill="#2E3192" points="84.2,143.9 109,143.9 108.7,151.3 101.9,151.3 101.9,156.3 108.5,156.3 
	107.8,170.5 85.9,170.5 85.4,162.7 91.3,162.7 91.3,158.5 85.1,158.5 84.2,143.9 "/>
<polygon fill-rule="evenodd" fill="#2E3192" points="134.2,143.9 133.1,154.3 125.2,154.3 124,162.4 132.5,162.4 131.8,170.5 
	110.9,170.5 111.9,143.9 134.2,143.9 "/>
<path fill-rule="evenodd" fill="#2E3192" d="M176.5,170.5h-41.3l2.5-38.5h27.2L176.5,170.5L176.5,170.5z M148.3,161.9h9.8v-9.8h-9.8
	V161.9L148.3,161.9z"/>
<path fill-rule="evenodd" fill="#2E3192" d="M134.7,87.4c0-13.7-7.4-25.6-18.4-32l-5.4-41.8h-3.2l1.7,38.8c-3.7-1.3-7.6-2-11.8-2
	c-4,0-8.1,0.8-11.8,2l1.9-38.8h-3.4l-5.4,42c-11,6.4-18.2,18.2-18.2,31.9c0,10.1,4,19.2,10.6,25.8l-3.4,26.6h14l0.8-18.7
	c4.6,2,9.6,3.2,14.8,3.2c5.4,0,10.3-1.2,14.8-3l0.8,18.6h14l-3.4-26.5C130.4,106.8,134.7,97.5,134.7,87.4L134.7,87.4z M129.3,87.4
	c0,7.1-2.4,13.7-6.4,18.9l-5.6-43.7C124.5,68.3,129.3,77.2,129.3,87.4L129.3,87.4z M97.6,55.7c4.4,0,8.3,0.8,12,2.4l1.2,26.5H84.4
	L85.6,58C89.3,56.5,93.3,55.7,97.6,55.7L97.6,55.7z M66,87.4c0-10.1,4.7-18.9,11.8-24.8l-5.6,43.5C68.4,100.9,66,94.3,66,87.4
	L66,87.4z M97.6,118.9c-5.2,0-10.1-1.3-14.5-3.5l0.8-21.9h27.3l0.8,21.9C107.8,117.5,103,118.9,97.6,118.9L97.6,118.9z"/>
</svg>
