<?xml version="1.0" encoding="utf-8"?>
<!-- Generator: Adobe Illustrator 18.1.1, SVG Export Plug-In . SVG Version: 6.00 Build 0)  -->
<svg version="1.2" baseProfile="tiny" id="Layer_1" xmlns="http://www.w3.org/2000/svg" xmlns:xlink="http://www.w3.org/1999/xlink"
	 x="0px" y="0px" viewBox="0 0 765 104" xml:space="preserve">
<g>
	<polygon fill-rule="evenodd" fill="#00A651" points="90.1,12 117.7,93.9 131.9,93.9 146.2,93.9 173.7,12 146.1,12 131.9,67.1 
		117.8,12 90.1,12 	"/>
	<polygon fill-rule="evenodd" fill="#00A651" points="81.4,74.3 36.2,74.3 36.2,59.5 81.4,59.5 81.4,43.5 36.2,43.5 36.2,31 
		81.4,31 81.4,12 10,12 10,93.3 81.4,93.3 81.4,74.3 	"/>
	<polygon fill-rule="evenodd" fill="#00A651" points="253.9,74.3 208.7,74.3 208.7,59.5 253.9,59.5 253.9,43.5 208.7,43.5 208.7,31 
		253.9,31 253.9,12 182.5,12 182.5,93.3 253.9,93.3 253.9,74.3 	"/>
	<polygon fill-rule="evenodd" fill="#00A651" points="582.2,74.3 537,74.3 537,59.5 582.2,59.5 582.2,43.5 537,43.5 537,31 
		582.2,31 582.2,12 510.8,12 510.8,93.3 582.2,93.3 582.2,74.3 	"/>
	<polygon fill-rule="evenodd" fill="#00A651" points="662.3,74.3 617.1,74.3 617.1,59.5 662.3,59.5 662.3,43.5 617.1,43.5 617.1,31 
		662.3,31 662.3,12 590.9,12 590.9,93.3 662.3,93.3 662.3,74.3 	"/>
	<polygon fill-rule="evenodd" fill="#00A651" points="697.2,12 671,12 671,93.3 697.2,93.3 697.2,50.8 721.8,93.3 748,93.3 748,12 
		721.8,12 721.8,53.8 697.2,12 	"/>
	<path fill-rule="evenodd" fill="#00A651" d="M288.1,64.7v28.6h-25.5V55.7v-1.4V12H326c5.4,0,9.9,4.5,9.9,9.9l0,27.9
		c0,3.2-2.7,5.9-5.9,5.9h0.2c3.1,0,5.7,2.6,5.7,5.7v31.4c0,0.2-0.2,0.4-0.4,0.4h-24c-0.2,0-0.4-0.2-0.4-0.4v-7v-6.4v-7.5
		c0-4-3.2-7.2-7.2-7.2h-9.4h-4.5H288.1L288.1,64.7z M288.1,31.7h19.2c1.9,0,3.5,1.6,3.5,3.5v8.2c0,1.9-1.6,3.5-3.5,3.5h-19.2V31.7
		L288.1,31.7z"/>
	<path fill-rule="evenodd" fill="#00A651" d="M354.5,12h55.7c5.4,0,9.9,4.5,9.9,9.9v15.1h-24.9v-1.6c0-2.2-1.8-4-4-4h-17.9
		c-2.2,0-4,1.8-4,4V70c0,2.2,1.8,4,4,4h17.9c2.2,0,4-1.8,4-4v-6.9h-14.8V46.6h14.8h24.9v16.5v20.3c0,5.4-4.4,9.9-9.9,9.9h-55.7
		c-5.4,0-9.9-4.5-9.9-9.9V21.9C344.6,16.5,349,12,354.5,12L354.5,12z"/>
	<path fill-rule="evenodd" fill="#00A651" d="M454.3,64.7v28.6h-25.5V55.7v-1.4V12h63.4c5.4,0,9.9,4.5,9.9,9.9l0,27.9
		c0,3.2-2.7,5.9-5.9,5.9h0.2c3.1,0,5.7,2.6,5.7,5.7v31.4c0,0.2-0.2,0.4-0.4,0.4h-24c-0.2,0-0.4-0.2-0.4-0.4v-7v-6.4v-7.5
		c0-4-3.2-7.2-7.2-7.2h-9.4H456H454.3L454.3,64.7z M454.3,31.7h19.2c1.9,0,3.5,1.6,3.5,3.5v8.2c0,1.9-1.6,3.5-3.5,3.5h-19.2V31.7
		L454.3,31.7z"/>
</g>
</svg>
