<?xml version="1.0" encoding="utf-8"?>
<!-- Generator: Adobe Illustrator 18.1.1, SVG Export Plug-In . SVG Version: 6.00 Build 0)  -->
<svg version="1.2" baseProfile="tiny" id="Layer_1" xmlns="http://www.w3.org/2000/svg" xmlns:xlink="http://www.w3.org/1999/xlink"
	 x="0px" y="0px" viewBox="0 0 591 104" xml:space="preserve">
<path fill="#25365F" d="M489,84.4c-1.5,1.4-3.3,2.4-5.3,3l-2.1-2.6c0.8-0.3,1.5-0.8,2.1-1.4c1.6-1.4,2.4-3.4,2.4-5.9
	c0-2.3-0.8-4.2-2.4-5.9c-1.1-1.1-3.3-2.7-6.7-4.8l-5.9-3.7c-1.8-1.1-3.2-2.3-4.3-3.4c-2-2.2-3-4.6-3-7.3c0-3.5,1.2-6.4,3.5-8.8
	c2.3-2.3,5.4-3.5,9.3-3.5c1.6,0,3.5,0.4,5.7,1.2c2.2,0.8,3.5,1.2,3.8,1.2c0.9,0,1.4-0.2,1.8-0.6c0.3-0.4,0.6-1,0.8-1.7h1.4l1.5,14.8
	h-1.7c-1.1-4.5-3-7.6-5.5-9.3c-2.5-1.8-5-2.7-7.4-2.7c-1.9,0-3.6,0.6-5,1.7c-1.4,1.1-2.1,2.7-2.1,4.7c0,1.8,0.5,3.3,1.6,4.6
	c1.1,1.3,2.8,2.6,5.1,4l6.1,3.8c3.8,2.4,6.5,4.5,8.1,6.5c1.5,2,2.3,4.4,2.3,7.1C493.2,78.9,491.8,81.9,489,84.4"/>
<path fill-rule="evenodd" fill="#FFFFFF" stroke="#25365F" d="M346.9,98.7c0,0,20.7-17.2,48.8-21.7c19.7-3.2,32.2-0.5,46.5,5
	c16.2,6.1,21.1,10.4,29.7,11.7c8.5,1.3,16.5,0.2,16.5,0.2L439,36.2c0,0-10.7,5.5-24.6,2.2C400.6,35,374,17.8,364.8,14
	c-9.2-3.9-18.6-7.2-30.4-6.5c-11.9,0.7-18,1.7-18,1.7"/>
<path fill-rule="evenodd" fill="#ED1B2D" d="M411.1,54.2c-3.2-0.4-13.9-1.5-24.6,0.6c-6.2,1.2-16.6,6.3-21,9.6
	c-12.3,8.9-17.3,27.6-18.7,34.2l-32-90.3c2.4,0.1,7.7,0.5,12.8,1.5c6.9,1.4,20.4,4.9,34.8,12.4c13,6.7,44.3,28.4,49,31.7
	c3.6,0.3,16.3,1,22-4.8c4.4-4.5,4.6-8.2,5.3-11.6c0.1-0.6,0.2-1.1,0.2-1.5l48.9,57.1c-6.6-2.1-25.7-8.6-40-16.9
	C432,67.2,414.6,56.4,411.1,54.2"/>
<path fill="#25365F" d="M102.5,86.3c2.4-0.2,3.9-0.8,4.6-1.6c0.7-0.8,1-2.8,1-5.9V55.3c0-2.1-0.3-3.5-1-4.1c-0.7-0.6-2.2-1-4.5-1.1
	V49h11.5l13.4,29.3L140.3,49h11.6v1.1c-2.2,0.1-3.5,0.5-4.2,1.2c-0.6,0.6-0.9,2-0.9,4v25.8c0,2.1,0.3,3.5,0.9,4.1
	c0.6,0.6,2,1,4.2,1.2v1h-16.3v-1c2.3-0.2,3.8-0.6,4.4-1.2c0.6-0.7,0.9-2.2,0.9-4.7V54.4l-14.8,33h-0.8l-14.6-31.7v23.1
	c0,3.2,0.5,5.2,1.4,6.2c0.6,0.6,2,1,4.1,1.3v1h-13.6"/>
<path fill="#25365F" d="M217.2,49v1.1c-2.2,0.2-3.7,0.5-4.3,1.1c-0.7,0.6-1,1.9-1,4.1l0,18.6c0,3,0.4,5.4,1.2,7.1
	c1.6,3.1,4.5,4.6,8.8,4.6c4.7,0,7.9-1.6,9.5-4.8c0.9-1.8,1.4-4.5,1.4-8.2V57.6c0-3.2-0.4-5.1-1.1-5.9c-0.8-0.8-2.2-1.3-4.3-1.5V49
	h13.4v1.1c-2.2,0.2-3.7,0.8-4.4,1.6c-0.7,0.8-1,2.8-1,5.8v15.1c0,4-0.6,7.1-1.8,9.4c-2.3,4.1-6.6,6.2-12.9,6.2
	c-6.3,0-10.5-2-12.8-6.1c-1.2-2.2-1.8-5.1-1.8-8.7V55.3c0-2.1-0.3-3.5-1-4.1c-0.6-0.6-2.1-1-4.2-1.2V49"/>
<path fill-rule="evenodd" fill="#25365F" d="M57,87.4v-1c1.5-0.2,2.6-0.7,3.3-1.7c0.8-1,2-3.6,3.9-7.8l12.1-28.5h1.1l14.4,32.9
	c1,2.2,1.7,3.6,2.3,4.1c0.6,0.5,1.6,0.9,2.9,1.1v1H82.3v-1c1.7-0.2,2.8-0.3,3.3-0.5c0.5-0.2,0.7-0.8,0.7-1.6c0-0.3-0.1-0.8-0.3-1.5
	c-0.2-0.7-0.5-1.5-0.8-2.3l-2.4-5.6H67.7c-1.5,3.8-2.4,6.1-2.7,7c-0.3,0.8-0.4,1.5-0.4,2c0,1,0.4,1.7,1.2,2c0.5,0.2,1.4,0.4,2.8,0.5
	v1 M82.1,72.5l-6.7-16l-6.6,16H82.1z"/>
<path fill-rule="evenodd" fill="#25365F" d="M182.5,65.3c2.5-1.1,3.7-3.2,3.7-6.1c0-3.5-1.4-5.8-4.2-7c-1.6-0.7-4-1-7.1-1
	c-1.2,0-2,0.1-2.2,0.3c-0.3,0.2-0.4,0.8-0.4,1.7v13.1l5.5-0.1C179.6,66.2,181.2,65.9,182.5,65.3 M160.7,86.4
	c2.3-0.1,3.9-0.5,4.5-1.1c0.7-0.6,1.1-2,1.1-4.2V55.3c0-2.1-0.4-3.5-1.1-4.1c-0.7-0.6-2.2-1-4.5-1.1V49h16.3c4.6,0,8.3,0.7,11,2.2
	c2.7,1.5,4.1,4.1,4.1,7.7c0,2.7-1,4.8-2.9,6.2c-1.1,0.8-2.7,1.5-4.8,2c2.7,0.6,4.9,1.7,6.8,3.2c1.9,1.5,2.8,3.6,2.8,6.3
	c0,4.5-2.1,7.7-6.3,9.4c-2.2,0.9-4.9,1.3-8.2,1.3h-18.9V86.4z M184.4,83.6c2-1.2,3-3.4,3-6.6c0-3.2-1.2-5.5-3.5-6.7
	c-2.3-1.2-5.3-1.8-8.9-1.8h-1.7c-0.2,0-0.6,0-1.1,0v14.4c0,1,0.3,1.6,0.8,2c0.6,0.3,1.9,0.4,3.9,0.4
	C179.9,85.3,182.4,84.7,184.4,83.6"/>
<path fill-rule="evenodd" fill="#25365F" d="M246.3,86.4c2.2-0.2,3.6-0.6,4.2-1.3c0.5-0.7,0.8-2.2,0.8-4.6V55.3c0-2-0.3-3.4-0.9-4
	c-0.6-0.6-2-1.1-4.1-1.2V49h16.1c3.3,0,6.1,0.4,8.4,1.3c4.2,1.6,6.3,4.6,6.3,8.9c0,2.9-0.9,5.1-2.8,6.7c-1.9,1.5-4.4,2.6-7.6,3.1
	l12,14.7c0.7,0.9,1.5,1.6,2.2,2c0.7,0.4,1.7,0.7,2.8,0.8v1h-9.3l-13.8-17.8l-3.2,0.1v11.4c0,2.2,0.3,3.5,1,4.1
	c0.7,0.6,2.1,0.9,4.3,1.1v1h-16.1 M266.1,66.3c3.1-1.3,4.6-3.6,4.6-7.1c0-3.4-1.4-5.7-4.1-6.9c-1.5-0.7-3.4-1-5.9-1
	c-1.6,0-2.7,0.1-3,0.4c-0.4,0.2-0.5,0.8-0.5,1.6v14.3C261.3,67.4,264.3,67,266.1,66.3"/>
<path fill="#25365F" d="M313.6,49.3c2.2,0.6,3.4,0.9,3.7,0.9c0.8,0,1.4-0.2,1.8-0.5c0.4-0.3,0.7-0.8,0.9-1.4h1.3l0.5,12.2h-1.3
	c-1.2-2.8-2.4-4.9-3.7-6.3c-2.3-2.4-5.3-3.6-8.9-3.6c-3.7,0-7,1.4-9.8,4.2c-2.8,2.8-4.2,7.5-4.2,13.9c0,5.3,1.4,9.5,4.2,12.5
	c2.8,3,6.3,4.5,10.4,4.5c0.7,0,1.5-0.1,2.5-0.2c0.9-0.1,1.8-0.3,2.7-0.6c1.4-0.5,2.2-0.8,2.6-1.2c0.3-0.3,0.5-0.8,0.5-1.5v-9.3
	c0-2.2-0.3-3.6-1-4.2c-0.6-0.6-2-0.9-4.1-1v-1.1h14.8V68c-1.4,0.1-2.4,0.3-2.9,0.7c-0.8,0.6-1.2,1.9-1.2,3.7v11.4
	c0,0.7-1.7,1.6-5,2.7c-3.3,1.1-6.5,1.7-9.6,1.7c-5.7,0-10.4-1.7-14.3-5c-4.3-3.6-6.4-8.5-6.4-14.7c0-5.4,1.7-10,5.1-13.9
	c3.8-4.3,8.7-6.4,15-6.4C309.2,48.4,311.4,48.7,313.6,49.3"/>
<path fill="#25365F" d="M516.3,49v1.1c-2.2,0.2-3.7,0.5-4.3,1.1c-0.7,0.6-1,1.9-1,4.1v18.6c0,3,0.4,5.4,1.2,7.1
	c1.5,3.1,4.5,4.7,8.8,4.7c4.7,0,7.9-1.6,9.5-4.8c0.9-1.8,1.4-4.5,1.4-8.2V57.6c0-3.2-0.4-5.1-1.1-5.9c-0.8-0.8-2.2-1.3-4.3-1.5V49
	H540v1.1c-2.3,0.2-3.7,0.8-4.4,1.6c-0.7,0.8-1,2.8-1,5.8v15.1c0,4-0.6,7.1-1.8,9.4c-2.3,4.1-6.6,6.2-12.9,6.2
	c-6.3,0-10.5-2-12.8-6.1c-1.2-2.2-1.8-5.1-1.8-8.7V55.3c0-2.1-0.3-3.5-1-4c-0.6-0.6-2.1-1-4.3-1.2V49"/>
<path fill="#25365F" d="M512.6,41.1c0-1.9,1.5-3.4,3.4-3.4c1.9,0,3.4,1.5,3.4,3.4c0,1.9-1.5,3.4-3.4,3.4
	C514.1,44.4,512.6,42.9,512.6,41.1"/>
<path fill="#25365F" d="M523.1,41.1c0-1.9,1.5-3.4,3.4-3.4c1.9,0,3.4,1.5,3.4,3.4c0,1.9-1.5,3.4-3.4,3.4
	C524.6,44.4,523.1,42.9,523.1,41.1"/>
<path fill-rule="evenodd" fill="#25365F" d="M545.5,86.4c2.1-0.2,3.5-0.6,4.1-1.1c0.6-0.5,1-1.9,1-4.1V55.4c0-2.1-0.3-3.5-0.9-4.1
	c-0.6-0.6-2-1-4.2-1.1v-1.1h15.6c5.3,0,9.7,0.9,13.4,2.6c6.6,3.1,9.9,8.7,9.9,16.7c0,2.9-0.6,5.6-1.8,8.2c-1.2,2.6-3,4.8-5.3,6.6
	c-1.5,1.1-3.1,2-4.7,2.6c-3,1.1-6.6,1.6-10.9,1.6h-16.1 M557.1,84.8c0.5,0.3,1.4,0.5,2.9,0.5c4.5,0,8.3-0.9,11.2-2.7
	c4.5-2.8,6.7-7.5,6.7-14.1c0-5.9-1.8-10.4-5.6-13.4c-3.2-2.6-7.4-3.8-12.6-3.9c-1.3,0-2.2,0.1-2.7,0.4c-0.5,0.3-0.7,0.9-0.7,1.9V83
	C556.4,83.9,556.7,84.5,557.1,84.8"/>
<path fill="#25365F" d="M6.6,86.2c2.6-0.3,4.3-0.8,4.9-1.4c0.7-0.7,1-2.5,1-5.4V50.2c0-2.4-0.4-4-1.1-4.7c-0.7-0.7-2.3-1.2-4.8-1.3
	v-1.2h18.7v1.2c-2.5,0.2-4.1,0.6-4.8,1.3c-0.7,0.7-1.1,2.3-1.1,4.7v13.1h20.4V50.2c0-2.4-0.4-4-1.1-4.7c-0.7-0.7-2.3-1.2-4.8-1.3
	v-1.2h18.7v1.2c-2.5,0.2-4.1,0.6-4.8,1.3c-0.7,0.7-1.1,2.3-1.1,4.7v29.9c0,2.5,0.4,4,1.1,4.7c0.7,0.7,2.4,1.1,4.8,1.3v1.2H33.9v-1.2
	c2.6-0.3,4.3-0.7,4.9-1.4c0.7-0.7,1-2.5,1-5.4V66.2H19.4v13.9c0,2.5,0.4,4,1.1,4.7c0.8,0.7,2.4,1.1,4.8,1.3v1.2H6.6"/>
</svg>
