<?xml version="1.0" encoding="utf-8"?>
<!-- Generator: Adobe Illustrator 19.2.1, SVG Export Plug-In . SVG Version: 6.00 Build 0)  -->
<svg version="1.1" id="layer" xmlns="http://www.w3.org/2000/svg" xmlns:xlink="http://www.w3.org/1999/xlink" x="0px" y="0px"
	 viewBox="0 0 652 652" style="enable-background:new 0 0 652 652;" xml:space="preserve">
<style type="text/css">
	.st0{fill:#DF0023;}
	.st1{fill:#353A90;}
</style>
<g>
	<g>
		<polygon class="st0" points="249.1,344.7 282.4,299.5 332.4,299.5 299.1,385.3 265.8,385.3 284.8,334.3 245.5,386.4 224.1,386.4 
			224.1,335.4 205,385.3 170.5,385.3 203.8,299.5 246.7,299.5 		"/>
		<polygon class="st0" points="400.3,344.7 434.8,299.5 483.6,299.5 451.5,385.3 417,385.3 437.2,334.3 397.9,386.4 376.5,386.4 
			375.3,335.4 357.4,385.3 322.9,385.3 355,299.5 399.1,299.5 		"/>
		<polygon class="st0" points="143.1,299.5 132.4,327.3 86,327.3 96.7,299.5 58.6,299.5 26.5,385.3 63.4,385.3 75.3,355.1 
			121.7,355.1 109.8,385.3 147.9,385.3 181.2,299.5 		"/>
		<path class="st1" d="M458.6,385.3c10.7,0,10.7,0,10.7,0c21.5,0,33.3-5.8,40.5-15.1c0,0,2.4-2.3,3.6-3.5c2.4-3.5,7.1-8.1,11.9-10.4
			c9.5-4.6,19-4.6,29.8-4.6c38.1,0,38.1,0,38.1,0c9.5-23.2,9.5-23.2,9.5-23.2c-42.9,0-42.9,0-42.9,0c-16.7,0-27.4,2.3-34.5,11.6
			c-1.2,2.3-4.8,5.8-7.2,8.1c-5.9,5.8-14.3,12.7-33.3,12.7l-2.4,1.2c-14.3,0-14.3,0-14.3,0L458.6,385.3z"/>
		<path class="st1" d="M470.5,354c10.7,0,10.7,0,10.7,0c21.4,0,33.3-5.8,40.5-13.9c0,0,2.4-3.5,3.6-4.6c2.4-2.3,7.2-8.1,11.9-10.4
			c9.5-4.6,19-4.6,29.8-4.6c38.1,0,38.1,0,38.1,0c9.5-23.2,9.5-23.2,9.5-23.2c-42.9,0-42.9,0-42.9,0c-16.6,0-27.4,2.3-34.5,11.6
			c-2.4,2.3-4.7,5.8-7.2,8.1c-5.9,5.8-14.3,12.7-33.3,13.9c0,0-2.4,0-3.6,0c-13.1,0-13.1,0-13.1,0L470.5,354z"/>
		<path class="st0" d="M482.4,322.7c10.7,0,10.7,0,10.7,0c21.4,0,33.3-5.8,40.5-13.9c0,0,2.4-3.5,3.6-4.6c2.4-2.3,7.2-8.1,11.9-10.4
			c9.5-4.6,19.1-4.6,29.8-4.6c38.1,0,38.1,0,38.1,0c9.5-23.2,9.5-23.2,9.5-23.2c-42.8,0-42.8,0-42.8,0c-16.7,0-27.4,2.3-34.6,11.6
			c-2.4,2.3-4.7,5.8-7.1,8.1c-5.9,6.9-14.3,12.7-33.3,13.9c0,0-2.4,0-3.6,0c-13.1,0-13.1,0-13.1,0L482.4,322.7z"/>
	</g>
</g>
</svg>
