<?xml version="1.0" encoding="utf-8"?>
<!-- Generator: Adobe Illustrator 18.1.1, SVG Export Plug-In . SVG Version: 6.00 Build 0)  -->
<svg version="1.2" baseProfile="tiny" id="Layer_1" xmlns="http://www.w3.org/2000/svg" xmlns:xlink="http://www.w3.org/1999/xlink"
	 x="0px" y="0px" viewBox="0 0 350 306" xml:space="preserve">
<path fill-rule="evenodd" fill="#D9AD76" d="M330.2,163l-5.2-7.5l-1.2-2.3l-2.9,0.6c-5.2,1.7-10.4,2.9-15.5,2.9s-10.9-1.2-15.5-2.9
	V66.3c0-14.4-5.8-28.2-16.1-38c-9.8-10.4-23.6-15.5-38-15.5c-16.7,0-32.2,7.5-42,20.7c-9.2-13.2-24.2-21.3-40.3-21.3
	c-15.5,0-29.3,6.9-38.5,19V15.7H63.3v4c0,0,0,115.1,0.6,134.6c-4.6,1.2-9.8,2.3-14.4,2.3c-6.3,0-11.5-1.2-16.7-2.3l-2.9-1.2
	l-1.2,2.3l-5.2,8.1l-1.7,3.5l3.5,1.7c7.5,2.9,15,4,24.2,4c7.5,0,15-1.2,21.9-4c11.5-4.6,23-6.9,34.5-6.9c12.1,0,23.6,2.3,33.9,6.3
	c11.5,4.6,24.2,6.9,36.8,6.9c13.2,0,25.9-2.3,37.4-6.9c10.4-4,21.9-6.3,33.9-6.3c12.1,0,23.6,2.3,34.5,6.3c7.5,3.5,15,4.6,23,4.6
	c8.1,0,15.5-1.2,23-4.6l3.5-1.1L330.2,163L330.2,163z M114.5,145.7V72.7c0-10.4,8.6-18.4,18.4-18.4c4.6,0,9.2,1.7,12.7,5.2
	c3.5,3.5,5.8,8.1,5.8,13.2v82.3c-3.5-0.6-6.3-1.7-8.6-2.9C134,148.6,124.2,146.3,114.5,145.7L114.5,145.7z M211.1,152.1
	c-2.9,1.2-5.8,2.3-9.2,2.9V72.7c0-10.4,8.6-18.4,18.4-18.4c5.2,0,9.2,1.7,12.7,5.2c3.5,3.5,5.8,8.1,5.8,13.2v73.1
	C229,146.3,219.7,148.6,211.1,152.1L211.1,152.1z"/>
<path fill-rule="evenodd" fill="#D9AD76" d="M284.2,223.4c-2.3-26.5-23.6-46.6-50.1-46.6c-26.5,0-47.8,20.1-50.6,46.6
	c0,4-0.6,8.1-0.6,12.1c0,4.6,0.6,8.6,0.6,12.1c2.3,26.5,24.2,47.2,50.6,47.2c26.5,0,47.8-20.7,50.1-46.6h-31.6
	c-2.9,9.8-9.8,17.3-19,17.3c-9.8,0-18.4-10.4-19.6-23.6c0-1.7,0-4,0-6.3c0-1.7,0-4,0-5.8c1.2-13.2,9.8-23.6,19.6-23.6
	c8.6,0,16.1,6.9,19,17.3H284.2L284.2,223.4z"/>
<path fill-rule="evenodd" fill="#D9AD76" d="M105.3,213.6c-1.7-7.5,3.5-13.2,13.8-13.2c2.9,0,8.1-0.6,10.9,2.9
	c2.9,2.3,3.5,4.6,4,8.1h35.7c-2.3-29.3-31.6-34.5-52.9-34.5c-20.1,0-48.9,8.1-48.9,36.2c0,30.5,32.8,31.6,51.2,36.8
	c8.1,1.7,12.7,2.3,13.8,8.6c1.7,7.5-4,12.7-10.9,13.2c-2.9,0-9.8,1.2-13.8-2.9c-2.3-2.3-3.5-4-3.5-8.1H69
	c2.3,29.3,31.1,35.1,52.4,35.1c20.7,0,49.5-8.6,49.5-36.8c0-30.5-32.8-31.6-51.8-36.8C119.1,222.3,107,220,105.3,213.6L105.3,213.6z
	"/>
<path fill-rule="evenodd" fill="#00285E" d="M284.2,244.1h-31.6h-2.9l-0.6,2.9c-2.3,9.2-8.6,15-15.5,15c-8.1,0-15-8.6-15.5-20.1
	c-0.6-1.7-0.6-4-0.6-6.3c0-2.3,0-4,0.6-5.8c0.6-11.5,7.5-20.1,15.5-20.1c6.9,0,13.2,5.8,15.5,14.4l0.6,2.9h2.9h31.6h4l-0.6-4
	c-2.3-28.2-25.3-50.1-53.5-50.1c-28.2,0-51.2,21.9-54.1,50.1c-0.6,4-0.6,8.1-0.6,12.7c0,5.2,0,9.2,0.6,12.7
	c2.3,28.2,25.9,50.1,54.1,50.1c27.6,0,51.2-21.9,53.5-50.1l0.6-4H284.2L284.2,244.1z M234.1,291.3c-24.2,0-44.9-19.6-46.6-43.7
	c-0.6-3.5-0.6-7.5-0.6-12.1c0-4.6,0-8.1,0.6-11.5c2.3-25.3,21.9-43.7,46.6-43.7c23,0,42,16.7,46,39.7l-25.3-0.6
	c-3.5-10.4-11.5-17.3-21.3-17.3c-12.1,0-21.9,11.5-23,27c0,1.7,0,4,0,6.3c0,2.9,0,4.6,0,6.9c1.2,15,10.9,27,23,27
	c9.8,0,17.8-7.5,21.9-17.8h24.7C276.7,274,257.1,291.3,234.1,291.3L234.1,291.3z"/>
<path fill-rule="evenodd" fill="#00285E" d="M129.4,221.1c-3.5-1.2-6.3-1.7-9.2-2.3c-4.6-0.6-10.9-3.5-11.5-5.8c0-1.7,0-4,1.1-5.8
	c1.7-1.7,5.2-2.9,9.2-3.5h1.1c2.3,0,5.8,0,7.5,1.7c1.7,2.3,2.3,3.5,2.9,6.3v2.9h42.6v-4c-1.7-24.2-21.9-38-56.4-38
	c-24.2,0-52.9,10.4-52.9,40.3c0,28.8,25.9,33.9,44.9,38c3.5,0.6,6.9,1.1,9.8,2.3h1.7c7.5,2.3,8.6,2.9,9.2,6.3c0.6,1.7,0,3.5-0.6,5.2
	c-1.7,1.7-4,2.9-6.9,2.9c-0.6,0-1.2,0-1.2,0c-2.9,0.6-7.5,0.6-10.4-1.2c-1.7-1.7-2.3-2.9-2.3-5.8l-0.6-3.5H65l0.6,4
	c1.7,24.2,21.9,38,55.8,38c17.8,0,33.9-5.8,43.1-15c6.3-6.3,9.8-15,9.8-25.3C174.3,230.3,148.4,225.1,129.4,221.1L129.4,221.1z
	 M121.4,291.9c-20.1,0-44.3-4.6-48.3-27h28.2c1.2,2.3,2.3,4.6,4.6,6.9c4.6,4,11.5,3.5,15.5,3.5c0,0,0.6,0,1.2,0
	c4.6-0.6,9.2-2.9,12.1-6.3c2.3-2.9,2.9-6.9,1.7-10.9c-1.7-8.1-7.5-9.8-14.4-11.5h-1.7c-2.9-1.1-6.3-1.7-9.8-2.3
	c-18.4-4-39.1-8.1-39.1-31.1c0-8.1,2.3-15,8.1-20.1c11.5-12.1,31.6-12.7,37.4-12.7c20.1,0,44.3,4.6,48.3,27.6h-28.2
	c-0.6-2.9-1.7-5.2-4-6.9c-4-4-9.8-4-12.7-4h-1.1c-6.3,0-11.5,2.3-15,5.8c-2.3,3.5-3.5,7.5-2.3,11.5c1.7,8.6,14.4,11.5,16.7,11.5
	c2.9,1.2,5.8,1.7,9.2,2.3c18.4,4,39.7,8.1,39.7,31.1C167.4,291.3,126,291.9,121.4,291.9L121.4,291.9z"/>
<rect x="16.6" y="167" fill-rule="evenodd" fill="#00285E" width="0" height="0"/>
<path fill-rule="evenodd" fill="#00285E" d="M132.3,50.8c-12.1,0-21.9,9.8-21.9,21.9v76.5c10.9,0.6,21.3,2.9,29.9,6.3
	c4.6,1.7,9.2,2.9,13.8,4V72.7C154.2,60.6,144.4,50.8,132.3,50.8L132.3,50.8z M147.3,72.7v77.7l-0.6,0.6c-1.7-1.2-4-1.7-6.3-2.3
	c-6.9-2.9-15-5.2-23-6.3V72.7c0-8.6,6.3-15,15-15c8.1,0,14.4,6.3,14.4,15H147.3L147.3,72.7z"/>
<path fill-rule="evenodd" fill="#00285E" d="M219.7,50.8c-12.1,0-21.9,9.8-21.9,21.9v86.9l0,0c5.2-1.1,9.2-2.3,13.8-4
	c9.2-3.5,19-5.8,29.9-6.3V72.7C241.6,60.6,231.8,50.8,219.7,50.8L219.7,50.8z M234.7,72.7v69.6c-8.6,1.2-16.1,3.5-23,5.8
	c-2.3,1.1-4.6,1.7-6.9,2.9V72.7c0-8.6,6.9-15,15-15C227.8,57.7,234.7,64,234.7,72.7L234.7,72.7L234.7,72.7z"/>
<path fill-rule="evenodd" fill="#00285E" d="M336,166.5L325,149.2c-6.3,2.3-13.2,4-20.1,4c-4,0-8.6-0.6-12.1-1.7V66.3
	c0-31.6-25.3-57.5-57.5-57.5c-16.7,0-31.6,7.5-42,19c-9.8-11.5-24.2-19-40.3-19c-13.8,0-25.9,5.2-35.1,13.8V12.3H59.2v139.8
	c-3.5,0.6-6.9,1.2-10.4,1.2c-7.5,0-15-1.2-21.3-4L16.6,167c1.7,1.1,2.9,1.7,4.6,2.9c8.1,4.6,17.3,6.3,27.6,6.3
	c6.9,0,14.4-1.1,20.7-3.5c10.4-4.6,22.4-7.5,35.7-7.5c12.7,0,24.7,2.3,35.7,6.3c10.4,4.6,22.4,6.9,35.1,6.9
	c13.2,0,25.3-2.3,35.7-6.9c10.9-4,23-6.3,35.7-6.3c13.2,0,25.3,2.3,35.7,6.9c6.9,2.9,14.4,4,21.9,4c9.8,0,19-2.3,26.5-6.9v0.6
	C333.1,168.8,334.2,167.6,336,166.5L336,166.5z M304.9,169.3c-7.5,0-15-1.7-21.9-4c-10.4-4.6-22.4-6.9-35.7-6.9
	c-12.7,0-24.7,2.3-35.7,6.3c-10.4,4-22.4,6.9-35.7,6.9c-12.7,0-24.7-2.9-35.1-6.9c-10.9-4-23-6.3-35.7-6.3
	c-13.2,0-25.3,2.9-35.7,6.9c-6.3,2.9-13.8,4-20.7,4c-8.1,0-15.5-1.2-22.4-4l4.6-7.5c5.8,1.7,11.5,2.3,17.8,2.3
	c6.3,0,12.1-1.2,17.8-2.9l0,0V19.7h43.7v24.7l2.3-4c7.5-14.4,22.4-24.7,40.3-24.7c17.3,0,32.2,9.8,39.7,24.2
	c9.2-14.4,24.7-23.6,42.6-23.6c28.2,0,50.1,22.4,50.1,50.1v90.3h0.6c5.8,2.3,12.1,3.5,19,3.5c5.8,0,11.5-1.2,16.7-2.9l4.6,8.1
	C319.9,167.6,312.4,169.3,304.9,169.3L304.9,169.3z"/>
</svg>
