<?xml version="1.0" encoding="utf-8"?>
<!-- Generator: Adobe Illustrator 19.2.1, SVG Export Plug-In . SVG Version: 6.00 Build 0)  -->
<svg version="1.1" id="layer" xmlns="http://www.w3.org/2000/svg" xmlns:xlink="http://www.w3.org/1999/xlink" x="0px" y="0px"
	 viewBox="0 0 652 652" style="enable-background:new 0 0 652 652;" xml:space="preserve">
<style type="text/css">
	.st0{fill:#BD0F72;}
</style>
<path class="st0" d="M26.7,399.9V186h189.8v213.9H26.7z M72.8,358.2h97.5V227.6H72.8V358.2z"/>
<polygon class="st0" points="466.2,399.9 466.2,186 626.7,186 626.7,227.5 512.4,227.5 512.4,270.7 626.7,270.7 626.7,311.6 
	512.4,311.6 512.4,358.4 626.7,358.4 626.7,399.9 "/>
<path class="st0" d="M41.5,465.4c-8.6,0-14.8-6-14.8-14.3c0-8.3,6.2-14.3,14.8-14.3s14.8,6,14.8,14.3S50.1,465.4,41.5,465.4z
	 M41.5,442.6c-4.6,0-8,3.6-8,8.5c0,4.9,3.4,8.5,8,8.5s8-3.6,8-8.5C49.5,446.1,46.2,442.6,41.5,442.6z"/>
<path class="st0" d="M75,436.8c-8.7,0-15,6-15,14.3s6.3,14.3,15,14.3c6.7,0,10.2-3.8,11.9-7.1l-5.7-2.7c-1.2,2.4-3.6,3.9-6.2,4
	c-4.7,0-8.2-3.6-8.2-8.5c0-4.9,3.4-8.5,8.2-8.5c2.7,0.1,5.1,1.6,6.2,4l5.7-2.7C85.2,440.6,81.7,436.8,75,436.8z"/>
<polygon class="st0" points="92.4,464.9 92.4,437.3 112.6,437.3 112.6,443 99.1,443 99.1,448 112.3,448 112.3,453.8 99.1,453.8 
	99.1,459.2 112.6,459.2 112.6,464.9 "/>
<path class="st0" d="M139,464.9l-1.4-4.1h-11.6l-1.4,4.1H117l10.4-27.7h8.8l10.4,27.7H139z M127.8,455.1h8l-4-11.9L127.8,455.1z"/>
<polygon class="st0" points="170,464.9 157.6,448 157.6,464.9 150.9,464.9 150.9,437.3 157.9,437.3 169.8,453.4 169.8,437.3 
	176.5,437.3 176.5,464.9 "/>
<polygon class="st0" points="220.8,464.9 208.4,448 208.4,464.9 201.8,464.9 201.8,437.3 208.8,437.3 220.7,453.4 220.7,437.3 
	227.4,437.3 227.4,464.9 "/>
<polygon class="st0" points="234.8,464.9 234.8,437.3 254.9,437.3 254.9,443 241.5,443 241.5,448 254.7,448 254.7,453.8 
	241.5,453.8 241.5,459.2 254.9,459.2 254.9,464.9 "/>
<polygon class="st0" points="267.9,464.9 267.9,443 260,443 260,437.3 282.4,437.3 282.4,443 274.6,443 274.6,464.9 "/>
<polygon class="st0" points="310.8,464.9 306.3,447.4 306.3,447.4 301.8,464.9 294.5,464.9 286.6,437.3 294.2,437.3 298.7,455.9 
	298.7,455.9 303.7,437.3 308.9,437.3 313.9,455.9 313.9,455.9 318.4,437.3 326,437.3 318.1,464.9 "/>
<path class="st0" d="M342.5,465.4c-8.6,0-14.8-6-14.8-14.3c0-8.3,6.2-14.3,14.8-14.3c8.6,0,14.8,6,14.8,14.3
	S351.1,465.4,342.5,465.4z M342.5,442.6c-4.6,0-8,3.6-8,8.5c0,4.9,3.4,8.5,8,8.5c4.6,0,8-3.6,8-8.5
	C350.5,446.1,347.2,442.6,342.5,442.6z"/>
<path class="st0" d="M377.6,464.9l-4.7-9.5h-4.2v9.5H362v-27.7h13.8c5.7,0,9.5,3.7,9.5,9.1c0,5.8-4.2,7.7-5.4,8.2l-0.3,0.1l5.7,10.3
	L377.6,464.9z M369,449.7h6.1c2.3,0,3.8-1.3,3.8-3.3c0-2-1.5-3.3-3.8-3.3H369V449.7z"/>
<polygon class="st0" points="407,464.9 399.4,454.1 397.2,456.8 397.2,464.9 390.5,464.9 390.5,437.3 397.2,437.3 397.2,449.5 
	406.4,437.3 414.5,437.3 403.8,450.2 415.2,464.9 "/>
<polygon class="st0" points="436.8,464.9 436.8,437.3 456.9,437.3 456.9,443 443.5,443 443.5,448 456.6,448 456.6,453.8 
	443.5,453.8 443.5,459.2 456.9,459.2 456.9,464.9 "/>
<polygon class="st0" points="481.9,464.9 475.6,455.2 469.3,464.9 461.4,464.9 471.1,450.7 462.1,437.3 469.9,437.3 475.6,446.4 
	481.2,437.3 489.1,437.3 480.2,450.7 489.8,464.9 "/>
<path class="st0" d="M493.9,464.9v-27.7h13.9c6.6,0,9.5,4.6,9.5,9.1c0,4.5-2.9,9.1-9.5,9.1h-7.2v9.5L493.9,464.9z M500.6,449.7h6.1
	c2.2,0,3.8-1.4,3.8-3.3c0-2-1.5-3.3-3.8-3.3h-6.1V449.7z"/>
<path class="st0" d="M537.5,464.9l-4.8-9.5h-4.2v9.5h-6.7v-27.7h13.9c5.7,0,9.5,3.7,9.5,9.1c0,5.8-4.2,7.7-5.4,8.2l-0.3,0.1
	l5.7,10.3L537.5,464.9z M528.6,449.7h6.1c2.3,0,3.8-1.3,3.8-3.3c0-2-1.5-3.3-3.8-3.3h-6.1V449.7z"/>
<polygon class="st0" points="551,464.9 551,437.3 571.1,437.3 571.1,443 557.6,443 557.6,448 570.8,448 570.8,453.8 557.6,453.8 
	557.6,459.2 571.1,459.2 571.1,464.9 "/>
<path class="st0" d="M575.8,461.2c3.1,2.8,7.2,4.2,12.1,4.2c7.2,0,11.5-3.4,11.5-9.2c0-6.4-6.3-7.8-10.9-8.8
	c-2.8-0.6-5.1-1.1-5.1-2.6c0-1,0.6-2.2,3.3-2.2c3,0,5.9,1,8.2,2.8l3.6-5c-2.9-2.4-6.7-3.7-11.1-3.7c-7.5,0-10.9,4.5-10.9,8.7
	c0,6.6,6.2,7.9,10.8,8.8c2.9,0.6,5.2,1.1,5.2,2.7c0,1.6-1.6,2.5-4.3,2.5c-3.4,0-6.6-1.3-9-3.6L575.8,461.2z"/>
<path class="st0" d="M603,461.2c3.1,2.8,7.2,4.2,12.1,4.2c7.2,0,11.5-3.4,11.5-9.2c0-6.4-6.3-7.8-10.9-8.8c-2.8-0.6-5.1-1.1-5.1-2.6
	c0-1,0.6-2.2,3.4-2.2c3,0,5.9,1,8.2,2.8l3.6-5c-2.9-2.4-6.7-3.7-11.1-3.7c-7.5,0-10.9,4.5-10.9,8.7c0,6.6,6.2,7.9,10.8,8.8
	c2.9,0.6,5.2,1.1,5.2,2.7c0,1.6-1.6,2.5-4.3,2.5c-3.3,0-6.6-1.3-9-3.6L603,461.2z"/>
<path class="st0" d="M438.2,186H392v135.8c0,0-89.4-115.5-105.5-135.8h-42v213.8h46.1V263.8c0,0,73.6,95.7,105.6,136.1h41.9
	L438.2,186z"/>
</svg>
