<?xml version="1.0" encoding="utf-8"?>
<!-- Generator: Adobe Illustrator 21.1.0, SVG Export Plug-In . SVG Version: 6.00 Build 0)  -->
<svg version="1.2" baseProfile="tiny" id="Layer_1" xmlns="http://www.w3.org/2000/svg" xmlns:xlink="http://www.w3.org/1999/xlink"
	 x="0px" y="0px" viewBox="0 0 198.8 184" xml:space="preserve">
<g>
	<g>
		<path d="M0,108.3l0.1-0.7c1,0.1,2,0.1,3,0.1c1.1,0,2.1-0.1,3.1-0.1v0.7c-0.5,0.1-0.9,0-1.4,0.1c-0.5,0.1-0.4,0.7-0.4,1.1l0.1,2.2
			l0.6,7.1l5.6-11.4h0.7c0.1,0.2,0.1,0.4,0.2,0.6l3,11.1l2-5.2l1.2-3.3l0.3-0.9c0.1-0.2,0.2-0.6,0.2-0.8c0-0.5-0.6-0.5-0.9-0.6
			l-0.9-0.1l0.1-0.7c0.7,0.1,1.5,0.1,2.3,0.1c0.8,0,1.5-0.1,2.3-0.1l-0.1,0.7c-1.2,0-1.1,0.1-1.5,1l-0.6,1.4l-0.8,1.9l-3.5,8.6
			l-0.3,0.8h-1.8c-0.1-0.3-0.1-0.6-0.2-0.9l-0.9-3.4l-1.7-6.1L7.7,116l-0.2,0.4l-2.4,4.9L4.7,122H2.9l-1-10.7l-0.2-1.7
			c-0.2-1.3-0.2-1.3-1.5-1.4H0z"/>
		<path d="M26.7,120.1c-1.5,0.9-3,2.2-4.9,2.2c-1.7,0-2.6-0.9-2.6-2.6c0-0.8,0.3-2.2,0.5-2.9c0.4-1.5,0.9-2.4,2.2-3.3
			c0.3-0.2,0.7-0.4,1-0.6c0.3-0.2,0.6-0.3,0.9-0.5c0.4-0.2,1.1-0.3,1.5-0.3c1.1,0,2,0.6,2,1.8c0,1.5-0.9,2.4-2.3,3
			c-0.7,0.3-1.4,0.5-2,0.7c-0.4,0.1-0.9,0.2-1.4,0.3c-0.1,0.5-0.1,0.9-0.1,1.4c0,1.1,0.5,1.7,1.6,1.7c1,0,2.5-0.9,3.3-1.4
			L26.7,120.1z M21.7,117.3c0.2-0.1,0.5-0.1,0.7-0.2c0.7-0.2,1.5-0.5,2.1-1.1c0.4-0.5,0.8-1.2,0.8-1.9c0-0.6-0.3-1.1-1-1.1
			c-1.5,0-2.1,1.9-2.4,3L21.7,117.3z"/>
		<path d="M34,113.5l0.1-0.6c0.8-0.1,1.6-0.5,2.4-0.7c0-0.4,0.1-0.8,0.1-1.2l0.2-1.4l0-0.4c0.7-0.2,1.4-0.4,2.1-0.6l0.5-0.2l0.2,0.2
			c-0.2,0.8-0.5,1.6-0.7,2.4l-0.3,1.2c0.3,0,0.6,0,0.9,0c0.5,0,1,0,1.5-0.1l0.4,0l0.1,0.1c0,0.1,0,0.1-0.1,0.1l-0.1,0.4l-0.1,0.7
			c-0.8-0.1-1.6-0.1-2.4-0.1h-0.5c0,0.2-0.1,0.5-0.1,0.7l-0.1,0.4l-0.6,2.6l-0.1,0.4l-0.1,0.7c-0.1,0.5-0.2,1.2-0.2,1.6
			s0.1,0.7,0.6,0.7c0.4,0,1.7-0.9,2-1.2c0.1-0.1,0.1-0.1,0.2-0.2l0.3,0.6c-0.5,0.4-1.1,0.8-1.6,1.2c-0.4,0.3-0.9,0.7-1.5,0.9
			c-0.2,0.1-0.5,0.2-0.8,0.3c-0.3,0.1-0.6,0.1-0.8,0c-0.6-0.2-0.8-0.7-0.8-1.3c0-0.4,0.1-0.9,0.2-1.3l0.9-4.1l0.3-1.5l0.1-0.6
			L34,113.5L34,113.5z"/>
		<path d="M51.6,112l0.3,0.2c0,0.1-0.1,0.1-0.1,0.2l-0.3,1.2l-1.2,5.4c-0.1,0.4-0.2,0.8-0.1,1.2c0,0.1,0.1,0.2,0.2,0.2
			c0.2,0.1,0.4-0.1,0.6-0.2c0.3-0.2,0.7-0.5,1-0.7l0.2,0.7c-0.5,0.4-1.1,0.9-1.7,1.3c-0.6,0.4-1.2,0.8-1.9,0.8c-0.1,0-0.2,0-0.3-0.1
			c-0.3-0.2-0.4-0.6-0.4-1c0-0.4,0.1-0.7,0.1-1.1l0.4-1.7l0.1-0.5l0.2-0.9c-0.9,1.7-3.3,5.1-5.4,5.1c-0.8,0-1.1-0.9-1.1-1.6
			c0-1.2,0.2-2,0.5-3.1c0.2-0.9,0.5-1.9,1-2.7c0.1-0.1,0.2-0.3,0.3-0.4c0.8-0.7,2.3-1.9,3.3-2.3c0.6-0.2,0.7-0.2,1.3-0.2
			c0.7,0,1.4,0.2,2.1,0.6L51.6,112z M49.3,113.6c-0.4-0.2-1.1-0.5-1.6-0.5c-0.5,0-1,0.2-1.3,0.6c-0.6,0.9-0.9,2.1-1.2,3.2
			c-0.2,0.7-0.5,2.1-0.5,2.8c0,0.2,0.1,0.4,0.1,0.6c0.1,0.1,0.1,0.2,0.2,0.2c0.1,0,0.2,0,0.3-0.1c1.8-1.2,3.5-4.2,3.9-6.3
			L49.3,113.6z"/>
		<path d="M55.6,113.6l0.1-0.4l0.1-0.7l0.3-1.8l0.2-1.5c0.1-0.2,0.1-0.4,0.1-0.6c0-0.4-0.3-0.4-0.6-0.4l-1.2-0.1l0.2-0.6
			c1.5-0.1,2.9-0.4,4.3-0.9l0.2,0.2c0,0.2-0.1,0.4-0.1,0.6l-1.2,5.3l-0.1,0.5l-0.7,3.4l-0.1,0.5c0.5-0.6,1.1-1.2,1.6-1.9l0.7-0.7
			c0.6-0.6,1.3-1.4,2.1-1.9c0.4-0.2,0.8-0.5,1.3-0.6c0.4-0.1,0.9-0.1,1.4,0.1l-0.3,1.4c-0.3-0.1-0.6-0.2-0.9-0.2
			c-1.2,0-2.3,0.7-3.1,1.7c0,0.1,0.1,0.1,0.1,0.2L60,116l1.1,2.9c0.2,0.4,0.7,1.7,1.2,1.7c0.4,0,1.2-0.6,1.5-0.8l0.2,0.6
			c-1.1,0.7-2.2,1.6-3.4,1.9c-0.2,0-0.3-0.1-0.5-0.2c-0.1-0.1-0.3-0.4-0.4-0.6c-0.2-0.5-0.4-1-0.5-1.3l-1.2-3.3
			c-0.2,0.2-0.4,0.4-0.7,0.7c-0.1,0.2-0.3,0.5-0.5,0.8c-0.2,1-0.5,2-0.6,2.8c-0.1,0.1-0.1,0.2-0.1,0.4c-0.6-0.1-1.1,0.1-1.6,0.2
			l-0.7,0.2l-0.2-0.2c0.2-0.7,0.4-1.4,0.6-2.1l0.4-1.9L55.6,113.6z"/>
		<path d="M72.9,120.1c-1.5,0.9-3,2.2-4.9,2.2c-1.7,0-2.6-0.9-2.6-2.6c0-0.8,0.3-2.2,0.5-2.9c0.4-1.5,0.9-2.4,2.2-3.3
			c0.3-0.2,0.7-0.4,1-0.6c0.3-0.2,0.6-0.3,0.9-0.5c0.4-0.2,1.1-0.3,1.5-0.3c1.1,0,2,0.6,2,1.8c0,1.5-0.9,2.4-2.3,3
			c-0.7,0.3-1.4,0.5-2,0.7c-0.4,0.1-0.9,0.2-1.4,0.3c-0.1,0.5-0.1,0.9-0.1,1.4c0,1.1,0.5,1.7,1.6,1.7c1,0,2.5-0.9,3.3-1.4
			L72.9,120.1z M67.9,117.3c0.2-0.1,0.5-0.1,0.7-0.2c0.7-0.2,1.5-0.5,2.1-1.1c0.4-0.5,0.8-1.2,0.8-1.9c0-0.6-0.3-1.1-1-1.1
			c-1.5,0-2.1,1.9-2.4,3L67.9,117.3z"/>
		<path d="M79.9,114.6c1-0.7,2.7-2.1,3.8-2.4c0.1-0.1,0.3-0.1,0.5-0.1s0.4,0,0.4,0.1c0.2,0.1,0.3,0.4,0.3,0.7c0,0.5-0.1,0.9-0.2,1.4
			l-0.6,2.2l-0.6,2.5c-0.1,0.4-0.2,0.9-0.2,1.4c0,0.2,0.1,0.3,0.3,0.3c0.1,0,0.5-0.2,0.6-0.3l1.1-0.7l0.2,0.6
			c-0.8,0.5-1.5,1.1-2.3,1.5c-0.3,0.2-0.7,0.4-1,0.5c-0.2,0.1-0.4,0.1-0.6,0.1c-0.2,0-0.4-0.1-0.5-0.1c-0.1-0.1-0.1-0.3-0.2-0.4
			c-0.1-0.5-0.1-0.9,0.1-1.5l0.1-0.7L82,116l0.2-0.8c0.1-0.2,0.1-0.5,0.1-0.8c0-0.1,0-0.3-0.2-0.3c-0.3,0-1.6,0.8-1.9,1L79.9,114.6z
			 M83.3,108.9c0-0.8,0.6-1.5,1.4-1.5c0.7,0,1.2,0.5,1.2,1.2c0,0.9-0.5,1.6-1.4,1.6C83.7,110.1,83.3,109.6,83.3,108.9z"/>
		<path d="M87.2,113.5l0.1-0.6c0.8-0.1,1.6-0.5,2.4-0.7c0-0.4,0.1-0.8,0.1-1.2l0.2-1.4l0-0.4c0.7-0.2,1.4-0.4,2.1-0.6l0.5-0.2
			l0.2,0.2c-0.2,0.8-0.5,1.6-0.7,2.4l-0.3,1.2c0.3,0,0.6,0,0.9,0c0.5,0,1,0,1.5-0.1l0.4,0l0.1,0.1c0,0.1,0,0.1-0.1,0.1l-0.1,0.4
			l-0.1,0.7c-0.8-0.1-1.6-0.1-2.4-0.1h-0.5c0,0.2-0.1,0.5-0.1,0.7l-0.1,0.4l-0.6,2.6l-0.1,0.5l-0.1,0.7c-0.1,0.5-0.2,1.2-0.2,1.6
			c0,0.4,0.1,0.7,0.6,0.7s1.7-0.9,2-1.2c0.1-0.1,0.1-0.1,0.2-0.2l0.3,0.6c-0.5,0.4-1.1,0.8-1.6,1.2c-0.4,0.3-0.9,0.7-1.5,0.9
			c-0.2,0.1-0.5,0.2-0.8,0.3c-0.3,0.1-0.6,0.1-0.8,0c-0.6-0.2-0.8-0.7-0.8-1.3c0-0.4,0.1-0.9,0.2-1.3l0.9-4.1l0.3-1.5l0.1-0.6
			L87.2,113.5L87.2,113.5z"/>
		<path d="M100.4,123.3l1.3-5.7l0.4-1.8c0.1-0.4,0.1-0.9,0.2-1.3c0-0.2-0.2-0.3-0.4-0.3c-0.4,0-1.2,0.6-1.5,0.9l-0.3-0.5
			c0.5-0.4,1-0.8,1.5-1.1c0.7-0.4,1.8-1.3,2.6-1.3c0.2,0,0.3,0.1,0.4,0.2c0.3,0.4,0.1,1.1,0,1.5l-0.2,1l-0.4,1.6
			c0.6-0.9,1.2-1.8,2-2.5c0.3-0.3,0.7-0.6,1.1-0.9c0.7-0.5,1.6-1,2.4-1c1.1,0,1.2,1.5,1.2,2.3c0,1.4-0.3,2.6-0.8,3.8
			c-0.3,0.7-0.6,1.3-1.1,1.8c-0.6,0.7-1.6,1.3-2.4,1.7c-0.7,0.4-1.4,0.6-2.2,0.6c-0.4,0-0.8-0.1-1.2-0.1c-0.1,0.5-0.2,1-0.4,1.5
			l-0.2,1.2c-0.2,0.8-0.4,1.6-0.4,2.3c-0.2,0-0.5,0.1-0.8,0.1l-0.9,0.2l-0.7,0.1l-0.2-0.1c0.2-0.8,0.4-1.7,0.7-2.6L100.4,123.3z
			 M103.1,120.7c0.6,0.4,1.3,0.6,2,0.6c1.6,0,2.2-2.4,2.6-3.6c0.1-0.4,0.2-0.9,0.3-1.3c0.1-0.4,0.1-1,0.1-1.4c0-0.3-0.1-1.1-0.5-1.1
			c-0.1,0-0.3,0-0.4,0.1c-1.3,0.6-2.2,1.7-2.9,2.9c-0.6,0.9-0.7,1.6-1,2.7L103.1,120.7z"/>
		<path d="M119.6,120.1c-1.5,0.9-3,2.2-4.9,2.2c-1.7,0-2.6-0.9-2.6-2.6c0-0.8,0.3-2.2,0.5-2.9c0.4-1.5,0.9-2.4,2.2-3.3
			c0.3-0.2,0.7-0.4,1-0.6c0.3-0.2,0.6-0.3,0.9-0.5c0.4-0.2,1.1-0.3,1.5-0.3c1.1,0,2,0.6,2,1.8c0,1.5-0.9,2.4-2.3,3
			c-0.7,0.3-1.4,0.5-2,0.7c-0.4,0.1-0.9,0.2-1.4,0.3c-0.1,0.5-0.1,0.9-0.1,1.4c0,1.1,0.5,1.7,1.6,1.7c1,0,2.5-0.9,3.3-1.4
			L119.6,120.1z M114.7,117.3c0.2-0.1,0.5-0.1,0.7-0.2c0.7-0.2,1.5-0.5,2.1-1.1c0.4-0.5,0.8-1.2,0.8-1.9c0-0.6-0.3-1.1-1-1.1
			c-1.5,0-2.1,1.9-2.4,3L114.7,117.3z"/>
		<path d="M121.2,114.5c0.3-0.2,0.6-0.5,0.9-0.7c0.7-0.5,1.3-0.9,2-1.4c0.2-0.1,0.4-0.2,0.7-0.3c0.2-0.1,0.5-0.1,0.7,0.1
			c0.1,0.1,0.1,0.1,0.2,0.2c0.2,0.5,0.1,1.1-0.1,1.5l-0.4,1.7l-0.1,0.6l-0.2,0.6l0.1-0.1c0.4-0.9,0.8-1.7,1.3-2.6
			c0.3-0.6,0.7-1.2,1.3-1.6c0.3-0.2,0.6-0.4,0.9-0.5c0.3-0.1,0.7-0.1,1,0.1c-0.2,1-0.4,1.9-0.4,2.9l-0.2,0.1
			c-0.1-0.1-0.1-0.1-0.1-0.1c-0.3-0.2-0.6-0.3-0.9-0.3c-1.3,0-1.9,1.5-2.3,2.4c-0.3,0.6-0.4,0.9-0.5,1.5l-0.3,1.2l-0.2,1.2l-0.1,0.7
			c-0.2,0-0.4,0.1-0.6,0.1c-0.6,0.1-1.1,0.1-1.7,0.3l-0.2-0.2c0.2-0.6,0.4-1.3,0.6-1.9l0.4-1.8l0.5-2.7c0.1-0.3,0.1-0.7,0.1-1
			c0-0.2-0.1-0.5-0.4-0.5c-0.2,0-1.3,0.7-1.5,0.9L121.2,114.5z"/>
		<path d="M129.8,119.8l0.1-0.8h0.6l0.1,1c0.5,0.7,1.7,1.2,2.6,1.2c1,0,2-0.4,2-1.5c0-0.9-0.7-1.2-1.4-1.4l-0.9-0.2
			c-0.7-0.1-1.3-0.3-1.8-0.8c-0.4-0.4-0.6-0.9-0.6-1.5c0-0.5,0.2-1,0.4-1.4c0.2-0.4,0.6-0.6,0.9-0.8c0.5-0.4,1.6-1.1,2.2-1.2
			c0.4-0.1,0.6-0.1,1-0.1c0.8,0,1.6,0.2,2.3,0.5c0.1,0.1,0.2,0.1,0.2,0.1c-0.1,0.2-0.1,0.5-0.1,0.7c-0.1,0.6-0.2,1.1-0.2,1.7h-0.6
			l-0.1-1c-0.6-0.6-1.4-0.9-2.3-0.9c-1,0-1.7,0.5-1.7,1.6c0,0.9,0.9,1.1,1.6,1.3l1.2,0.3c0.6,0.1,1.1,0.3,1.5,0.7
			c0.3,0.3,0.6,0.9,0.6,1.4c0,1.1-0.5,1.7-1.3,2.3c-0.7,0.6-1.3,1-2.2,1.3c-0.3,0.1-1,0.2-1.4,0.2c-1.2,0-1.6-0.3-2.8-0.6l-0.1,0
			l0.1-0.2l0.1-0.7L129.8,119.8z"/>
		<path d="M139.3,118.9c0-0.8,0.2-1.9,0.5-2.7c0.3-0.9,0.6-1.5,1.3-2.2c1.3-1.2,2.8-2,4.6-2c2.2,0,3.3,1.2,3.3,3.3
			c0,1.5-0.6,3.8-1.7,4.8c-1.2,1.2-3,2.1-4.7,2.1C140.2,122.3,139.3,121.2,139.3,118.9z M142.5,114.9c-0.4,1-0.6,2.1-0.7,3.2
			c-0.1,0.3-0.1,0.6-0.1,0.9c0,1.3,0.4,2.4,1.9,2.4c0.6,0,1.1-0.3,1.4-0.7c0.4-0.4,0.5-0.8,0.7-1.3c0.3-0.9,0.5-1.8,0.6-2.7
			c0.1-0.4,0.1-0.8,0.1-1.2c0-0.6-0.1-1.2-0.4-1.7c-0.3-0.4-0.8-0.7-1.3-0.7C143.5,113,142.9,113.9,142.5,114.9z"/>
		<path d="M150.3,114.5c0.4-0.4,0.9-0.7,1.4-1.1c0.3-0.2,0.9-0.7,1.4-1c0.3-0.2,0.6-0.3,0.8-0.4c0.1,0,0.2-0.1,0.4,0
			c0.1,0,0.2,0.1,0.3,0.1c0.2,0.1,0.2,0.3,0.2,0.5c0,0.6-0.2,1.4-0.3,2l-0.6,2.4l0.6-1c0.7-1.2,2.7-3.1,4.1-3.7
			c0.2-0.1,0.5-0.2,0.7-0.3c0.1-0.1,0.2-0.1,0.4-0.1c0.1,0,0.3,0.1,0.4,0.1c0.3,0.1,0.5,0.4,0.5,0.7c0,0.4,0,0.6-0.1,0.9l-0.4,1.5
			l-0.6,2.2l-0.1,0.4l-0.1,0.4l-0.1,0.6c-0.1,0.3-0.3,1.2-0.1,1.4c0.3,0.3,1.5-0.6,1.8-0.9l0.2,0.6c-1.2,0.8-2.2,1.7-3.5,2.2
			c-0.2,0-0.3,0-0.4,0c-0.2-0.1-0.4-0.1-0.5-0.2c-0.3-0.3-0.2-0.5-0.2-0.9c0-0.4,0.2-1,0.2-1.4l1.1-4c0.1-0.3,0.4-1.1,0.1-1.4
			c0-0.1-0.1-0.1-0.1-0.1c-0.9-0.3-2.2,1.4-2.6,2c-0.7,0.9-1.1,1.8-1.5,2.8c-0.1,0.3-0.2,0.6-0.2,0.7c-0.1,0.4-0.2,0.8-0.3,1.2
			c-0.1,0.3-0.1,0.6-0.1,0.8c-0.7,0-1.5,0.2-2.3,0.4l-0.2-0.2c0.2-0.6,0.4-1.3,0.6-1.9l0.2-0.4l0.2-0.6l0.4-1.6l0.3-1.4l0.1-0.7
			c0-0.2,0-0.4,0.1-0.6c0-0.2-0.1-0.3-0.2-0.3c-0.6,0.1-1.1,0.5-1.5,0.9L150.3,114.5z"/>
		<path d="M172,112l0.3,0.2c0,0.1-0.1,0.1-0.1,0.2l-0.3,1.2l-1.2,5.4c-0.1,0.4-0.2,0.8-0.1,1.2c0,0.1,0.1,0.2,0.2,0.2
			c0.2,0.1,0.4-0.1,0.6-0.2c0.3-0.2,0.7-0.5,1-0.7l0.2,0.7c-0.5,0.4-1.1,0.9-1.7,1.3c-0.6,0.4-1.2,0.8-1.9,0.8c-0.1,0-0.2,0-0.3-0.1
			c-0.3-0.2-0.4-0.6-0.4-1c0-0.4,0.1-0.7,0.1-1.1l0.4-1.7l0.1-0.5l0.2-0.9c-0.9,1.7-3.3,5.1-5.4,5.1c-0.8,0-1.1-0.9-1.1-1.6
			c0-1.2,0.2-2,0.5-3.1c0.2-0.9,0.5-1.9,1-2.7c0.1-0.1,0.2-0.3,0.3-0.4c0.8-0.7,2.3-1.9,3.3-2.3c0.6-0.2,0.7-0.2,1.3-0.2
			c0.7,0,1.4,0.2,2.1,0.6L172,112z M169.7,113.6c-0.4-0.2-1.1-0.5-1.6-0.5c-0.5,0-1,0.2-1.3,0.6c-0.6,0.9-0.9,2.1-1.2,3.2
			c-0.2,0.7-0.5,2.1-0.5,2.8c0,0.2,0.1,0.4,0.1,0.6c0.1,0.1,0.1,0.2,0.2,0.2c0.1,0,0.2,0,0.3-0.1c1.8-1.2,3.5-4.2,3.9-6.3
			L169.7,113.6z"/>
		<path d="M175.7,116.2l0.7-3.1l0.6-2.7l0.1-0.9c0.1-0.3,0.2-0.8,0.1-1c-0.2-0.2-0.6-0.2-0.8-0.2h-0.8l0.1-0.6
			c1.5-0.2,2.9-0.5,4.3-1l0.2,0.2c-0.2,0.9-0.4,1.9-0.7,2.8l-1.9,8.6c-0.1,0.5-0.2,1.2-0.2,1.7c0,0.2,0.1,0.5,0.3,0.5
			c0.2,0,0.4-0.1,0.6-0.2l0.2-0.1c0.3-0.2,0.6-0.4,0.9-0.6l0.3,0.6c-0.6,0.4-1.1,0.8-1.7,1.2l-0.9,0.6c-0.4,0.2-0.9,0.5-1.4,0.5
			c-0.7,0-0.8-0.7-0.8-1.3c0-0.7,0.2-1.4,0.3-2.2L175.7,116.2z"/>
		<path d="M182.7,116.2l0.7-3.1l0.6-2.7l0.1-0.9c0.1-0.3,0.2-0.8,0.1-1c-0.2-0.2-0.6-0.2-0.8-0.2h-0.8l0.1-0.6
			c1.5-0.2,2.9-0.5,4.3-1l0.2,0.2c-0.2,0.9-0.4,1.9-0.7,2.8l-1.9,8.6c-0.1,0.5-0.2,1.2-0.2,1.7c0,0.2,0.1,0.5,0.3,0.5
			c0.2,0,0.4-0.1,0.6-0.2l0.2-0.1c0.3-0.2,0.6-0.4,0.9-0.6l0.3,0.6c-0.6,0.4-1.1,0.8-1.7,1.2l-0.9,0.6c-0.4,0.2-0.9,0.5-1.4,0.5
			c-0.7,0-0.8-0.7-0.8-1.3c0-0.7,0.2-1.4,0.3-2.2L182.7,116.2z"/>
		<path d="M187.7,114.4c0.4-0.4,0.9-0.7,1.4-1.1c0.3-0.2,0.8-0.6,1.3-0.8c0.5-0.3,1-0.5,1.4-0.3c0.1,0.1,0.2,0.1,0.2,0.2
			c0.1,0.2,0.2,0.7,0.2,0.9c0,0.3,0,0.5,0,0.8l-0.4,3.5l-0.1,0.7l-0.1,0.8c-0.1,0.4-0.1,0.8,0.1,1.2c0.1,0.1,0.1,0.2,0.2,0.3
			c1.2-0.2,2.6-2.8,3-3.8c0.4-0.9,0.7-1.9,0.9-2.8c0.1-0.4,0.2-0.8,0.2-1.2c0.6-0.1,1.2-0.2,1.8-0.4l0.5-0.1l0.2,0.2
			c-0.1,0.2-0.2,0.5-0.3,0.7l-0.3,1.1l-0.2,0.6l-1.3,4.7l-0.4,1.5c-0.5,1.6-1.3,3.2-2.3,4.5c-0.8,1.1-2.5,2.3-3.9,2.3
			c-1.1,0-2.1-0.5-2.2-1.7v-0.3l1.3-0.8l0.3,0.1c-0.2,1,0.4,1.8,1.4,1.8c1.5-0.2,2.2-1.9,2.5-3.1l0.4-1.2l1-3.9
			c-1,1.4-2.2,3-3.8,3.7c-0.4,0.1-0.6,0.1-0.9-0.1c-0.4-0.4-0.6-1.1-0.6-1.6c0-0.6,0.1-1.2,0.1-1.8l0.4-3.8c0-0.3,0.1-0.7-0.4-0.7
			c-0.5,0-1.3,0.6-1.7,0.9L187.7,114.4z"/>
	</g>
	<g>
		<path fill="#ED1C24" d="M158.6,85.5V57.3h-14.4v12.2c-3.5-7.8-11.2-13.2-20.3-13.2c-8.9,0-16.6,5.3-20.2,12.9
			c-3.5-7.6-11.2-12.9-20.2-12.9c-8.8,0-16.4,5.1-20,12.6c-3.6-7.5-11.2-12.6-20-12.6c-12.2,0-22.2,10-22.2,22.2s9.9,22.2,22.2,22.2
			c8.8,0,16.4-5.1,20-12.6c3.6,7.5,11.2,12.6,20,12.6c8.9,0,16.6-5.3,20.2-12.9c3.5,7.6,11.2,12.9,20.2,12.9c9,0,16.8-5.4,20.3-13.2
			v12.2h33V85.5L158.6,85.5L158.6,85.5z M43.7,86.6c-4.5,0-8.1-3.6-8.1-8.1s3.6-8.1,8.1-8.1s8.1,3.6,8.1,8.1
			C51.8,83,48.2,86.6,43.7,86.6z M93.3,81.6c0.4,0.5,0.7,1.1,0.9,1.7c1,3.1-0.7,6.5-3.8,7.5c-2.5,0.8-5.2-0.1-6.7-2.2
			c-0.4,0.5-0.8,1-1.3,1.4c-2.7,1.9-6.4,1.3-8.3-1.3c-1.5-2.2-1.5-5,0-7c-0.6-0.2-1.2-0.5-1.7-0.9c-2.7-1.9-3.2-5.6-1.3-8.3
			c1.5-2.2,4.3-2.9,6.7-2.2c0-0.6,0.1-1.2,0.3-1.9c1-3.1,4.4-4.8,7.5-3.8c2.5,0.8,4.1,3.2,4.1,5.7c0.6-0.2,1.2-0.3,1.9-0.3
			c3.3,0,5.9,2.7,5.9,5.9C97.4,78.6,95.7,80.9,93.3,81.6z M144.2,83.3h-13.7c-1.5,2-3.9,3.4-6.6,3.4c-4.5,0-8.1-3.6-8.1-8.1
			s3.6-8.1,8.1-8.1c2.8,0,5.2,1.4,6.7,3.5h13.6L144.2,83.3L144.2,83.3z"/>
		<path fill="#ED1C24" d="M93.8,75.2c-0.2-0.6-0.8-0.9-1.4-0.7c-0.5,0.2-0.8,0.6-0.7,1.1l-5.4,1.8c-0.1-0.2-0.2-0.4-0.3-0.5l1.9-1.7
			c0.2,0.1,0.4,0.1,0.7,0.1c0.4-0.1,0.7-0.6,0.6-1.1c-0.1-0.4-0.6-0.7-1.1-0.6c-0.4,0.1-0.7,0.6-0.6,1.1c0,0,0,0.1,0,0.1l-1.9,1.7
			c-0.1-0.1-0.3-0.2-0.5-0.3l1-2.3c0.2,0,0.4-0.1,0.6-0.2c0.4-0.3,0.4-0.9,0.1-1.2c-0.3-0.4-0.9-0.4-1.2-0.1
			c-0.4,0.3-0.4,0.9-0.1,1.2c0,0,0.1,0.1,0.1,0.1l-1,2.3c-0.2-0.1-0.4-0.1-0.6-0.1v-5.7c0.5-0.1,0.8-0.6,0.8-1.1
			c0-0.6-0.5-1.1-1.1-1.1s-1.1,0.5-1.1,1.1c0,0.5,0.4,0.9,0.8,1.1v5.7c-0.2,0-0.4,0.1-0.6,0.1l-1-2.3c0.2-0.2,0.2-0.4,0.2-0.6
			c0-0.5-0.4-0.9-0.9-0.9c-0.5,0-0.9,0.4-0.9,0.9c0,0.5,0.4,0.9,0.9,0.9c0,0,0.1,0,0.1,0l1,2.3c-0.2,0.1-0.3,0.2-0.5,0.3L80,74.8
			c0.1-0.2,0.1-0.4,0-0.7c-0.2-0.4-0.7-0.6-1.1-0.4c-0.4,0.2-0.6,0.7-0.4,1.1c0.2,0.4,0.7,0.6,1.1,0.4c0,0,0.1,0,0.1-0.1l1.9,1.7
			c-0.1,0.2-0.2,0.3-0.3,0.5l-5.4-1.8c0-0.5-0.3-0.9-0.8-1.1c-0.6-0.2-1.2,0.1-1.4,0.7c-0.2,0.6,0.1,1.2,0.7,1.4
			c0.5,0.2,1-0.1,1.3-0.5L81,78c-0.1,0.2-0.1,0.4-0.1,0.6l-2.5,0.2c-0.1-0.2-0.3-0.4-0.5-0.4c-0.4-0.1-0.9,0.1-1.1,0.6
			c-0.1,0.4,0.1,0.9,0.6,1.1c0.4,0.1,0.9-0.1,1.1-0.6c0,0,0-0.1,0-0.1l2.5-0.2c0,0.2,0.1,0.4,0.2,0.6L79,80.9
			c-0.2-0.1-0.4-0.2-0.6-0.2c-0.5,0.1-0.8,0.5-0.7,0.9c0.1,0.5,0.5,0.8,0.9,0.7c0.5-0.1,0.8-0.5,0.7-0.9c0,0,0-0.1,0-0.1l2.1-1.2
			c0.1,0.2,0.2,0.3,0.4,0.4l-3.3,4.6c-0.4-0.2-1,0-1.3,0.4c-0.4,0.5-0.2,1.2,0.2,1.5c0.5,0.4,1.2,0.2,1.5-0.2c0.3-0.4,0.3-1-0.1-1.4
			l3.3-4.6c0.2,0.1,0.4,0.2,0.6,0.2l-0.5,2.4c-0.2,0-0.4,0.1-0.6,0.3c-0.3,0.4-0.2,0.9,0.2,1.2c0.4,0.3,0.9,0.2,1.2-0.2
			c0.3-0.4,0.2-0.9-0.2-1.2c0,0-0.1,0-0.1-0.1l0.5-2.4c0.1,0,0.2,0,0.3,0s0.2,0,0.3,0l0.5,2.4c-0.2,0.1-0.3,0.3-0.4,0.6
			c-0.1,0.5,0.2,0.9,0.7,1c0.5,0.1,0.9-0.2,1-0.7c0.1-0.5-0.2-0.9-0.7-1c0,0-0.1,0-0.1,0l-0.5-2.4c0.2-0.1,0.4-0.1,0.6-0.2l3.3,4.6
			c-0.3,0.4-0.3,0.9,0,1.3c0.4,0.5,1.1,0.6,1.5,0.2c0.5-0.4,0.6-1.1,0.2-1.5c-0.3-0.4-0.9-0.6-1.3-0.4l-3.3-4.6
			c0.1-0.1,0.3-0.3,0.4-0.4l2.2,1.2c0,0.2,0,0.4,0.1,0.6c0.3,0.4,0.8,0.5,1.2,0.2c0.4-0.3,0.5-0.8,0.2-1.2c-0.3-0.4-0.8-0.5-1.2-0.2
			c0,0-0.1,0-0.1,0.1l-2.1-1.2c0.1-0.2,0.1-0.4,0.2-0.6l2.5,0.2c0.1,0.2,0.2,0.4,0.4,0.5c0.4,0.2,0.9,0.1,1.2-0.3
			c0.2-0.4,0.1-0.9-0.3-1.2c-0.4-0.2-0.9-0.1-1.2,0.3c0,0,0,0.1-0.1,0.1l-2.5-0.2c0-0.2,0-0.4-0.1-0.6l5.4-1.8
			c0.3,0.4,0.8,0.6,1.3,0.4C93.6,76.4,94,75.8,93.8,75.2z"/>
	</g>
</g>
</svg>
