<?xml version="1.0" encoding="utf-8"?>
<!-- Generator: Adobe Illustrator 21.1.0, SVG Export Plug-In . SVG Version: 6.00 Build 0)  -->
<svg version="1.2" baseProfile="tiny" id="Layer_1" xmlns="http://www.w3.org/2000/svg" xmlns:xlink="http://www.w3.org/1999/xlink"
	 x="0px" y="0px" viewBox="0 0 198.8 184" xml:space="preserve">
<g>
	<path fill="#034EA2" d="M60,100.4c-3.6,2-7.7,4.3-7.4,8.8c0.3,5.5,6.1,7.5,10.4,7.7c10.9,0.4,24.8-6.6,20.9-19.8
		c-3-10.1-14.2-10.8-22.8-13.9c-4.2-1.5-6.5-3.3-3.6-7.5c2-2.9,4.7-5,10.4-7.4c4.8-2.1,9.1-2,10.1,0.4c1,2.7-2.9,5.6-10.8,6.6
		c5-0.1,9.8-0.1,11.6-3.9c1.1-2.4,0.2-5.5-3.4-5.9c-5.3-0.6-9.5,1.1-13.3,3.2c-4.9,2.8-7,6.5-7.2,10.1c-0.1,2.7,0.9,5.7,5.5,8
		c3.9,1.9,7.2,3.1,11,3.9c3.7,0.8,7.5,2.7,9.9,6c7.2,9.8-10.1,18-17.9,16.7C52.2,111.3,52.8,106.2,60,100.4L60,100.4z"/>
	<path fill="#034EA2" d="M163.4,78.7c-0.3,0.8,0,1.6,0.6,1.9c0.6,0.2,1.4-0.2,1.7-1s0-1.6-0.6-1.9C164.5,77.4,163.7,77.9,163.4,78.7
		L163.4,78.7z"/>
	<path fill="#034EA2" d="M104.9,94.5c0.5,3.8,1.4,7.5,2.6,11.1c1.3,4.1,3.3,7.3,4.6,3.9c0.9-2.3-0.1-4.6-0.8-6.8
		c-0.9-2.8-2.7-5.4-5.6-8.2C105.2,94,104.8,94.1,104.9,94.5L104.9,94.5z M96,85.8l1.6-1.6c-1.3-1.3-3.3-2-5.9-1.3
		c-3,0.8-5.1,2.5-6.2,5.4c-1.1,2.9-0.8,5.9,0.8,7.1c2.3,1.7,5.4,0.5,7.9-2c1.7,2.2,3.8,3.3,7.8-0.2c0.3,5,0.9,9.9,3.2,14.4
		c1.5,2.8,3.5,4.7,5.9,4.3c1.6-0.3,2.1-2.3,1.9-4.7c-0.4-5.8-3.5-10.2-7.3-13.6c0-0.3-0.1-0.6-0.1-0.9c2.1-2.4,3.9-4.9,5.8-7.4
		c0.7-0.8,1.3-0.6,1.3,0.5c0.1,2.7,0,5.4,0.1,8.1c0,1.1,1.3,1.5,1.9,0.2l2.9-6.1c0.3-0.6,1-1.6,1,0v4.3c0,2,1.8,3.8,3.4,1.1l2.1-3.7
		c0.5-0.8,1-0.8,1,0.2V94c0,1.6,1.2,2.4,3.1,1.1l2.7-1.9c0.6-0.4,1-0.1,1.3,0.6c0.7,1.7,2.5,2.1,4.6,0.9c1-0.6,1.8-1.3,2.6-2.2
		c1-1,1,0.4,1,1c0,1.7,1.5,2.7,3.9,1c2.7-2.1,4.1-5,5.7-7.9c0.4-0.8,1.9-1.3,1.8,0.4c-0.1,2.4-1.4,5,0,7.3c0.7,1.2,2.1,1.8,4.6,0.5
		c1.5-0.8,3-2.2,4.5-4.4c0.3-0.4,1.1-0.7,1-0.1c-0.5,4.2,1.6,7.7,6.2,2.5c1.5-1.8,2.5-3.8,3.6-5.5c0.5-0.7,1-0.4,0.9,0.4
		c-0.1,2-0.6,3.9-0.5,5.9c0.1,2.1,1.4,1.8,2.3,0.4l2.8-4.7c0.6-0.9,1-0.8,1,0.2l-0.1,3.9c0,2.1,1.9,2.4,4.5,1.5c0.5-0.2,1-0.1,1,0.6
		c0,3,1.5,5.9,6.6,5.7c4-0.2,7-1.7,10.5-4.7c-0.8-0.6-1.5-1.1-2.2-1.7c-1,1.7-3.4,3.4-6.3,4.8c-2,0.9-4.3,1-6.1-0.6
		c-2.4-2-1.7-4.1-0.8-5.9c0.7-1.4,2-2.6,4-3.7c-2.5-1.6-3.2-3.1-2.4-4.5c0.5-0.8,1.2-1.6,4.2-0.8c1.3,0.3,1.4,1.3,1,2.1
		c-0.4,0.7-0.4,2.5,2.1,1.3c1.9-0.9,0.7-2.5-0.8-3.4c-2.2-1.3-4.6-2.1-6.6-0.5c-1.7,1.4-2.1,3.3,1.3,5.7c-2.5,1.3-3,2.7-4,3.9
		c-1.4,1.7-3,1.4-3-0.5l-0.1-5.2c-0.1-1.9-2.1-2.2-3.2-0.2l-1.7,3.1c-0.7,1.2-1,0.5-1-0.3c0.2-1.8,0.8-3.7,0.6-5.5
		c-0.2-2.4-2.5-1.1-3.4,0.6c-1,2-2.2,4.3-3.7,6.3c-2.2,2.8-3.5,3-3.6,1.3c-0.1-1.7,0-3.4-0.1-5.1c-0.1-3-2.3-2.3-3.5,0.2
		c-0.6,1.1-1.2,2.1-1.8,3.2c-0.6,1-1.5,2.2-2.8,2.9c-1.9,1.1-3.4,0.6-3.1-1.4l1-6.6c0.2-1.4-0.5-1.3-1.4-1c-2.1,0.8-2.9,0.3-2.6-0.9
		c0.2-0.8,0.5-1,0.5-1.8c0.1-2.3-1.4-2.8-2.4-1.3c-0.7,1.1-0.7,2.7,0.4,3.8c0.6,0.6,0.5,1.2,0,2.1c-0.8,2.4-2.5,4.6-4.7,6.7
		c-1.1,0.8-1.6,0.3-1.5-1.1c0-0.7,0-1.5,0-2.2c-0.6-2-1.9-0.8-2.7,0.5c-1.6,2.3-3.3,3.2-4.3,2.7c-1.5-0.7-1.9-2.6-1.3-4.7
		c0.7-2.5,2.5-4.2,4.6-5.1c2.5-1.1,3.9-0.3,4.1,0.9c0.2,1.1-1.5,2.6-4.1,2.3c-1.5-0.2-1.7,2.7,0.8,2.2c1.8-0.4,3.3-1.9,3.7-3
		c0.8-2.7-0.7-3.2-2.1-3.4c-2.4-0.3-5.4,1-7.5,3.3c-1.1,1.2-2.1,2.6-2.4,4.7c-0.1,0.7-0.3,1.4-0.8,1.8l-2,1.4
		c-1.1,0.8-1.3,0.4-1.3-1.2l-0.1-3.7c-0.1-2.7-2.6-2.2-3.7-0.1l-1.5,2.9c-0.6,1.1-1.1,0.7-1.1-0.9l-0.1-4.5c0-2-2.4-1.6-3.2-0.2
		l-1.6,3.1c-0.7,1.2-1.2,0.9-1.2-0.7c0-1,0.1-1.9,0.1-2.9c-0.1-2.7-2.4-2.9-3.6-1.3c-1.8,2.5-3.7,5.2-5.9,7.6
		c-0.5,0.5-0.9,0.2-1-0.7c0-0.4-0.1-0.8-0.1-1.1c2.3-2.6,4.3-5.5,6-8.7c1.7-3,2.6-6,3.2-9c0.8-3.8,0.2-6.3-1.9-6.1
		c-1.8,0.1-3.1,2.3-4.3,4.3c-3.6,5.9-4.9,13.5-5.5,21.8c-3.5,2.9-5.7,2.6-6.8,0c1.2-1.7,1.8-3.2,1.7-4.4c-0.1-1.2-1.2-1.7-2.3-0.2
		c-1,1.4-0.8,3-0.6,4.6c-1.8,1.4-3.7,2.5-5.7,1.9c-2.5-0.7-2.8-3.3-2.3-5.6c0.5-2.4,2.2-4.6,5.5-5C93.8,83.5,95.2,84.6,96,85.8
		L96,85.8z M104.9,88.3c-0.1-5.1,0.7-9.6,2-13.8c0.8-2.6,1.8-5.1,3.5-6.8c1.2-1.2,2.1-0.8,2.4,1c0.5,2.7-0.2,5.5-1.4,8.3
		C109.5,81.6,107.3,85.3,104.9,88.3L104.9,88.3z M95.1,90.6c0.1-1.7,0.4-2.7,0.8-2.5C96.3,88.5,95.9,89.4,95.1,90.6L95.1,90.6z
		 M149.9,81.5c0.2,0,0.4,0.5,0.4,1.1c0,0.6-0.2,1.1-0.4,1.1c-0.2,0-0.4-0.5-0.4-1.1S149.7,81.5,149.9,81.5L149.9,81.5z"/>
	<path fill="#034EA2" d="M12.7,76.6c1.3,1.3,2.3,2.8,2.4,5.6c-1.6,0.1-3,0.6-4.4,1.6c0.2,2.6,0.4,5.2,0.5,7.7c1.3-2,2.6-3,3.9-2.6
		l0.4,7.4c2.2-0.2,4.3,0.4,6.3,1.3l-0.5-7c1.4,0.6,2.9,0.6,4.3-0.4c1.7-1.2,3.9-1.9,5.5-0.5c3.2,2.8,6.1,5.2,10.3,5.6
		c0.1-1.7-0.6-3.3-1.8-4.9c0.9-0.9,1.8-1.7,2.7-2.6c-2.2,0.6-4.6,0.4-6.6-1.4c-2.7-2.5-5.2-3.9-8.1-2.9c-2.5,0.9-4.8,1.5-7.2,0.3
		c-0.4-1.9-0.4-3.8-0.2-5.6c-1.5-0.5-3-1-4.5-1.5c-0.6-0.1-1.2-0.3-1.8-0.4C13.6,76.4,13.2,76.5,12.7,76.6L12.7,76.6z"/>
	<path fill="#ED1C24" d="M12.1,84.3c0.3,1.5,0.2,3-0.2,4.5c1.6-1.2,3.1-1.4,4.4-0.8l0.4,7.1c1.4,0.1,2.6,0.5,3.8,0.8L19.9,88
		c1.5,1.9,3.4,2.4,5.6,1.1c1.4-0.8,3.1-2.1,6.1-0.2c3.8,2.4,5.8,3.9,8.3,4.7c-0.3-1-1.2-2.1-2.8-3.2c0.6-0.4,1.2-0.8,1.8-1.2
		c-2.1-0.8-4.1-2-6-3.6c-1.6-1.3-3.6-1.4-5.6-0.5c-3.3,1.5-5.8,0.7-7.9-1c-0.4-2-0.5-3.9-0.5-5.9c-1.1-0.6-2.3-0.9-3.4-0.6
		c0.7,2.5,1.2,5,0.4,6.1C14.6,83.7,13.3,83.8,12.1,84.3L12.1,84.3z"/>
	<path fill="none" stroke="#034EA2" stroke-width="1.4173" stroke-miterlimit="2.6131" d="M11.8,98.1c0.3,4.3,0.4,8.7,0.3,13.1
		 M11.8,98.2c3.1-2.2,6.3-2.3,9.3-0.9c2.9,1.3,5.4,2.1,8.4,0.5c3-1.6,5.5-0.6,7.6,0.5c3.8,1.9,6,1.5,7-0.2c-2.6-1.5-3.6-4.5-4.4-7.6
		c2.3-2,4.4-4,5.4-6.1c-4.5,1-7.2-0.4-9.5-2.8c-2.2-2.3-5.1-3.6-8.3-2.4c-2.2,0.8-6.1-0.4-10.6-2.2c-2.6-1-4.8-0.4-6.7,1.4
		C10.6,84.9,11.2,91.5,11.8,98.2L11.8,98.2z M9.4,77.5c0.6,11.6,1,23.4,0.7,33.8 M9,77.4c-0.2,11.2-0.5,22.5-0.7,33.7 M9.2,75.6
		c0.8,0,1.5,0.4,1.5,0.9c0,0.5-0.7,0.9-1.5,0.9c-0.8,0-1.5-0.4-1.5-0.9C7.6,76,8.3,75.6,9.2,75.6L9.2,75.6z"/>
	<path fill="none" stroke="#034EA2" stroke-width="2.2677" stroke-miterlimit="2.6131" d="M23.7,67.2c14.2,0,25.8,11.5,25.8,25.7
		S38,118.7,23.7,118.7S-2.1,107.2-2.1,92.9S9.5,67.2,23.7,67.2L23.7,67.2z"/>
</g>
</svg>
